<?xml version="1.0" encoding="UTF-8"?>
<svg width="716px" height="1024px" viewBox="0 0 716 1024" version="1.1" xmlns="http://www.w3.org/2000/svg" xmlns:xlink="http://www.w3.org/1999/xlink">
    <!-- Generator: Sketch 53 (72520) - https://sketchapp.com -->
    <title>404 Design Copy 4</title>
    <desc>Created with Sketch.</desc>
    <defs>
        <linearGradient x1="43.2276139%" y1="100%" x2="43.2276139%" y2="0.954437256%" id="linearGradient-1">
            <stop stop-color="#D5E8FF" offset="0%"></stop>
            <stop stop-color="#FFF2F2" offset="100%"></stop>
        </linearGradient>
        <path d="M0,0 L587,0 L587,1024 L0,1024 C154.318945,933.281191 231.478418,851.227806 231.478418,777.839844 C231.478418,704.451882 154.318945,659.751361 0,643.738281 L0,287.503906 L0,245.832031 L0,0 Z" id="path-2"></path>
        <linearGradient x1="138.59375%" y1="41.4378275%" x2="0%" y2="41.4378275%" id="linearGradient-4">
            <stop stop-color="#FBF1F3" stop-opacity="0" offset="0%"></stop>
            <stop stop-color="#DFE4F1" offset="100%"></stop>
        </linearGradient>
        <linearGradient x1="50%" y1="0%" x2="50%" y2="31.1624873%" id="linearGradient-5">
            <stop stop-color="#000000" stop-opacity="0.0349923514" offset="0%"></stop>
            <stop stop-color="#000000" stop-opacity="0" offset="100%"></stop>
        </linearGradient>
        <linearGradient x1="87.763494%" y1="0%" x2="26.5783834%" y2="67.0539179%" id="linearGradient-6">
            <stop stop-color="#37357D" offset="0%"></stop>
            <stop stop-color="#191847" offset="100%"></stop>
        </linearGradient>
        <linearGradient x1="106.582177%" y1="50%" x2="45.0198627%" y2="63.426418%" id="linearGradient-7">
            <stop stop-color="#D2D6BD" offset="0%"></stop>
            <stop stop-color="#99A169" offset="100%"></stop>
        </linearGradient>
        <linearGradient x1="89.8844656%" y1="50%" x2="32.3744416%" y2="48.1600433%" id="linearGradient-8">
            <stop stop-color="#E1EBFA" offset="0%"></stop>
            <stop stop-color="#BFD3F3" offset="100%"></stop>
        </linearGradient>
        <linearGradient x1="89.8844656%" y1="50%" x2="32.3744416%" y2="48.6860059%" id="linearGradient-9">
            <stop stop-color="#E1EBFA" offset="0%"></stop>
            <stop stop-color="#BFD3F3" offset="100%"></stop>
        </linearGradient>
        <linearGradient x1="89.8844656%" y1="50%" x2="32.3744416%" y2="48.7124046%" id="linearGradient-10">
            <stop stop-color="#E1EBFA" offset="0%"></stop>
            <stop stop-color="#BFD3F3" offset="100%"></stop>
        </linearGradient>
        <linearGradient x1="89.8844656%" y1="50%" x2="32.3744416%" y2="48.4179414%" id="linearGradient-11">
            <stop stop-color="#E1EBFA" offset="0%"></stop>
            <stop stop-color="#BFD3F3" offset="100%"></stop>
        </linearGradient>
        <linearGradient x1="89.8844656%" y1="50%" x2="32.3744416%" y2="48.6826345%" id="linearGradient-12">
            <stop stop-color="#E1EBFA" offset="0%"></stop>
            <stop stop-color="#BFD3F3" offset="100%"></stop>
        </linearGradient>
        <linearGradient x1="89.8844656%" y1="50%" x2="32.3744416%" y2="48.5675077%" id="linearGradient-13">
            <stop stop-color="#E1EBFA" offset="0%"></stop>
            <stop stop-color="#BFD3F3" offset="100%"></stop>
        </linearGradient>
        <path d="M108.849935,51.6318339 L73.8727286,39.744438 C71.7068875,39.0083526 69.824403,37.6153619 68.4872827,35.759345 L43.0247372,0.415542661 C42.7019093,-0.0325651361 42.0769425,-0.134124567 41.6288347,0.188703324 C41.4091521,0.346968068 41.2630342,0.587548893 41.2238785,0.855457458 L40.7211914,4.29491066 C40.2126896,7.77414903 37.4518676,10.4904148 33.9648169,10.9422457 L10.0973025,14.0348541 C4.07253583,14.8155069 -0.17865834,20.3323895 0.601994521,26.3571561 C0.639600361,26.6473829 0.688773373,26.9359934 0.749396179,27.2222987 L2.78539157,36.8377584 C3.81022598,41.6777762 7.49345403,45.5165666 12.2869625,46.7406312 L29.4034807,51.1114848 C33.921411,52.2651781 37.2210651,56.1420428 37.6378407,60.7862866 L42.6611328,116.762196 C46.7030561,119.610035 51.1493451,119.610035 56,116.762196 C59.0592346,114.966107 55.813255,89.8117259 61.1313477,84.6127818 C63.3622519,82.4318595 67.3417969,96.5932505 81.3320312,101.048329 C86.68862,102.754091 87.1074205,105.617101 82.5884328,109.637359 L82.5884622,109.637392 C80.7253621,111.294874 80.5586758,114.148869 82.2161579,116.011969 C83.2171327,117.13712 84.7131758,117.689157 86.2050781,117.483876 L101.938806,115.318955 C105.711963,114.799778 108.948062,112.365704 110.493332,108.884555 L114.364297,100.164136 C114.755798,99.2821715 115.029546,98.3525269 115.178494,97.3991391 L118.262537,77.6586595 C118.522202,75.9965856 118.397199,74.2970978 117.897143,72.6909038 L116.805664,69.1850474 C115.713996,65.678583 117.117807,61.8764106 120.226193,59.9206596 L126.478111,55.987046 C127.575849,55.2963653 128.787082,54.8052569 130.055856,54.5364074 L145.954828,51.1674641 C147.659749,50.8061966 148.748995,49.1312203 148.387728,47.4262997 C148.356867,47.2806579 148.315737,47.1373825 148.264648,46.9975474 L148.264648,46.9975474 C147.550919,45.0440076 145.497731,43.9241168 143.468861,44.3817335 L124.470391,48.6668863 C124.036104,48.7648409 123.608164,48.88907 123.188933,49.0388883 L116.091305,51.5753274 C113.753077,52.4109267 111.200918,52.4308419 108.849935,51.6318339 Z" id="path-14"></path>
        <filter x="-37.2%" y="-53.0%" width="174.3%" height="192.5%" filterUnits="objectBoundingBox" id="filter-16">
            <feOffset dx="0" dy="-8" in="SourceAlpha" result="shadowOffsetOuter1"></feOffset>
            <feGaussianBlur stdDeviation="17" in="shadowOffsetOuter1" result="shadowBlurOuter1"></feGaussianBlur>
            <feColorMatrix values="0 0 0 0 0.792156863   0 0 0 0 0.854901961   0 0 0 0 0.956862745  0 0 0 0.760653409 0" type="matrix" in="shadowBlurOuter1"></feColorMatrix>
        </filter>
        <polygon id="path-17" points="-4.54747351e-13 4.81392703e-13 109 4.81392703e-13 109 143 68.7460937 143 59.7214955 129.616555 45.6630859 129.616555 29.0595703 122.063477 29.0595703 109.59147 20 105.273438 8.28222656 115.28418 -6.75015599e-14 109.59147 -1.74327029e-13 90.6835938 8.28222656 73 -3.39803985e-13 61.3945313 -4.54747351e-13 41.0498047"></polygon>
        <rect id="path-19" x="0.125618692" y="0" width="108.661491" height="48"></rect>
        <path d="M13.7257725,13.5483871 L14.8986131,20.1343718 C10.5778522,22.3716186 7.58577076,24.2445553 5.92236877,25.7531817 C4.25896678,27.2618081 2.28484386,29.8929825 0,33.6467049 L8.14491529,41.2954574 L23.621785,41.7337292 L30.9710872,35.2258065 C31.0919541,30.2589466 30.5911385,25.8194462 29.4686403,21.9073053 C27.7848929,16.039094 27.8940814,3.031187 27.8940814,0.576203377 C27.8940814,-1.06045237 22.7021301,1.82751071 12.3182277,9.24009262 L13.7257725,13.5483871 Z" id="path-21"></path>
        <linearGradient x1="21.1584682%" y1="11.5852453%" x2="32.2218995%" y2="33.2154866%" id="linearGradient-23">
            <stop stop-color="#FFFFFF" offset="0%"></stop>
            <stop stop-color="#FFFFFF" stop-opacity="0" offset="100%"></stop>
        </linearGradient>
        <linearGradient x1="13.8923123%" y1="20.9740458%" x2="58.4622146%" y2="55.6601154%" id="linearGradient-24">
            <stop stop-color="#FFFFFF" offset="0%"></stop>
            <stop stop-color="#FFFFFF" stop-opacity="0" offset="100%"></stop>
        </linearGradient>
        <linearGradient x1="13.8923123%" y1="8.0481071%" x2="52.9359314%" y2="35.8724102%" id="linearGradient-25">
            <stop stop-color="#FFFFFF" offset="0%"></stop>
            <stop stop-color="#FFFFFF" stop-opacity="0" offset="100%"></stop>
        </linearGradient>
    </defs>
    <g id="404-Design-Copy-4" stroke="none" stroke-width="1" fill="none" fill-rule="evenodd">
        <g id="Rectangle" transform="translate(137.000000, 0.000000)">
            <mask id="mask-3" fill="white">
                <use xlink:href="#path-2"></use>
            </mask>
            <use id="Mask" fill="url(#linearGradient-1)" xlink:href="#path-2"></use>
            <rect fill="url(#linearGradient-4)" mask="url(#mask-3)" x="-68" y="0" width="202" height="668"></rect>
            <polygon fill="url(#linearGradient-5)" mask="url(#mask-3)" points="-61 560 324.796875 560 343.941406 560 366.753906 560 388.949219 560 666 560 666 1051 -61 1051"></polygon>
            <rect id="Rectangle-Copy-2" fill="url(#linearGradient-5)" mask="url(#mask-3)" x="-494" y="779" width="727" height="491"></rect>
        </g>
        <g id="Group-4" transform="translate(56.000000, 303.000000)">
            <path d="" id="Path-2" stroke="#979797"></path>
            <path d="M169.385734,41.6143856 C172.832755,54.3165357 177.324838,82.8679985 172.74099,87.3466846 L143.74099,87.3466846 C143.738029,87.2952316 143.735125,87.2439094 143.732279,87.1927176 C132.983627,86.0032178 124.623721,76.8899986 124.623721,65.8242188 L124.623721,44.8242188 C124.623721,32.9500966 134.249599,23.3242188 146.123721,23.3242188 L148.123721,23.3242188 C158.907019,23.3242187 167.836172,31.2627563 169.385734,41.6143856 Z" id="Hair-Back" fill="#191847"></path>
            <g id="Head" transform="translate(127.623721, 27.324219)" fill="#B28B67">
                <path d="M8.26227388,34.4901268 C3.65436435,29.0813759 0.535634794,22.4528771 1.05677633,15.0254539 C2.55833022,-6.37502057 32.3485306,-1.66718886 38.1433414,9.13393292 C43.9381521,19.9350547 43.249578,47.3329958 35.7603014,49.2634576 C32.7735882,50.033323 26.4110012,48.1474609 19.935372,44.244306 L24,73 L0,73 L8.26227388,34.4901268 Z"></path>
            </g>
            <path d="M142.373686,58.1990527 C143.479463,70.0770588 143.036456,83.6414837 139.74099,86.8613457 L110.74099,86.8613457 C109.125196,58.7877035 124.74099,69.6590744 124.74099,43.2270114 C125.714574,42.2757629 126.634533,41.3342443 127.544839,40.522278 L127.512598,39.7449192 C132.534272,29.4644522 138.905119,24.3242187 146.62514,24.3242187 C158.20517,24.3242187 161.860307,29.712541 164.972402,34.2873045 C162.645244,42.2723941 153.614152,43.4564055 145.589462,48.4337305 C144.643575,47.6652231 143.437437,47.2046318 142.123721,47.2046318 C139.086155,47.2046318 136.623721,49.6670657 136.623721,52.7046318 C136.623721,55.7421979 139.086155,58.2046318 142.123721,58.2046318 C142.207494,58.2046318 142.290828,58.2027589 142.373686,58.1990527 Z" id="Hair-Front" fill="url(#linearGradient-6)"></path>
            <path d="M89.0315466,281.412293 C113.020895,288.122143 133.718179,291.477068 151.1234,291.477068 C168.528621,291.477068 184.695395,286.310543 199.623721,275.977492 C176.147962,269.090442 156.814629,265.646917 141.623721,265.646917 C126.432814,265.646917 108.902089,270.902042 89.0315466,281.412293 Z" id="Skirt-Shadow" fill="#747D43"></path>
            <path d="M159.382744,302.933702 C159.15143,302.58596 158.956084,302.207686 158.80114,301.797927 C155.594546,293.317863 104.232794,201.834909 99.1159089,185.109375 L156.941996,185.109375 C160.832436,197.826034 178.342927,277.629135 180.807229,293.551029 C188.582557,318.666094 204.59118,400.00462 206.634812,405.639504 C208.784679,411.567307 196.688093,417.742545 193.464638,410.455046 C188.335576,398.859406 176.114558,366.774477 170.673044,347.183643 C165.571637,328.817278 161.41773,312.293876 159.382744,302.933702 Z" id="Leg" fill="#997659" transform="translate(153.002507, 299.437196) rotate(7.000000) translate(-153.002507, -299.437196) "></path>
            <path d="M22.0575023,348.572266 C15.9941722,350.303393 5.60461804,336.365456 13.0992214,333.658203 C25.0244008,329.350507 47.5247684,315.237275 68.1791709,307.052768 C83.5222765,300.972913 100.782804,292.935462 110.600066,291.374377 C109.768371,263.797659 105.966477,197.617764 108.458409,183.324219 L159.623721,183.324219 C157.234126,197.030768 137.033834,297.041933 133.279321,307.052768 C132.087823,310.626703 128.53264,312.206118 124.580783,312.317814 C101.099035,318.252693 27.9517384,346.889416 22.0575023,348.572266 Z" id="Leg" fill="#B28B67"></path>
            <path d="M-11.3218682,354.608874 C-12.4406227,357.59536 -13,359.829943 -13,361.31262 C-13,363.115906 -12.6995858,365.74735 -12.0987574,369.206949 C-10.0068188,369.206949 8.79378524,369.206949 44.3030548,369.206949 C45.768738,364.361457 44.9226607,361.745531 41.7648228,361.359173 C38.606985,360.972814 35.9837155,360.623963 33.8950143,360.31262 L7.67999265,348.625833 C7.1755635,348.400956 6.58434403,348.627578 6.359467,349.132007 C6.35561997,349.140636 6.35189544,349.14932 6.34829452,349.158055 L4.66321309,353.245644 C1.73988122,354.609602 -0.635629434,355.29158 -2.46331886,355.29158 C-3.94827313,355.29158 -5.99900754,354.691855 -8.61552208,353.492404 L-8.61551661,353.492392 C-9.61961727,353.032097 -10.8067447,353.472939 -11.2670399,354.477039 C-11.2868793,354.520318 -11.305167,354.56429 -11.3218682,354.608874 Z" id="shoe" fill="#E4E4E4" transform="translate(16.000000, 358.706949) rotate(80.000000) translate(-16.000000, -358.706949) "></path>
            <path d="M108.623721,183.324219 C131.170561,176.87348 152.503894,176.87348 172.623721,183.324219 C179.623721,215.261687 196.632661,227.937693 199.623721,276.903144 C165.623721,293.796943 123.623721,264.854676 88.6237214,281.32953 C78.6237214,258.285326 92.6237214,202.788737 108.623721,183.324219 Z" id="Skirt" fill="url(#linearGradient-7)"></path>
            <path d="M205.623721,143.635009 L245.106597,138.249384 C253.004774,133.856245 260.270714,130.882167 266.904417,129.32715 C268.771209,129.272645 271.740918,129.951272 267.316875,133.639416 C262.892833,137.327559 258.404018,141.407415 259.192248,143.375713 C259.980478,145.344011 264.094782,144.611672 264.776359,147.639081 C265.230744,149.657354 258.55348,149.985303 244.744567,148.622929 L212.707595,161.324219 L205.623721,143.635009 Z M81.5935133,152.773902 L103.490905,152.856082 C79.4798207,206.889888 66.9600688,235.181133 65.9316495,237.729816 C63.617706,243.464352 68.5143216,252.19795 70.6083088,256.891321 C63.7882623,259.943089 64.5149455,248.641148 55.9116404,252.643711 C48.0589424,256.297065 42.0854145,262.916699 33.0127567,257.31859 C31.8973267,256.630336 30.6749971,254.038933 33.6282998,252.013889 C40.9860538,246.968766 51.589023,238.138891 53.0216511,235.23247 C54.9752955,231.269045 64.4992496,203.782855 81.5935133,152.773902 Z" id="Skin" fill="#997659"></path>
            <path d="M137.097289,87.9934919 L154.276536,87.6370258 C161.812375,125.32486 186.827467,147.357909 237.414186,134.732164 L248.517071,183.143351 C201.112794,193.53463 157.384227,178.017747 144.219499,126.798867 C140.811567,113.539917 137.8251,99.6923965 137.097289,87.9934919 Z" id="Clothes-Back" fill="#E4D9D9" transform="translate(192.807180, 136.915689) rotate(5.000000) translate(-192.807180, -136.915689) "></path>
            <path d="M133.114538,78.3401583 L159.091326,84.2894953 C159.091326,128.968643 173.323746,157.474678 180.623721,190.324219 L110.467376,190.324219 C109.479101,201.675117 108.87221,213.341784 108.555962,225.324219 L56.0253571,225.324219 C67.9290868,161.988182 93.0538327,112.988182 131.399595,78.3242188 L133.100876,78.3242188 L133.114538,78.3401583 Z" id="Clothes" fill="#FEF2F2"></path>
            <path d="M176.301853,415.726143 C175.183099,418.71263 174.623721,420.947212 174.623721,422.42989 C174.623721,424.233176 174.924136,426.864619 175.524964,430.324219 C177.616903,430.324219 196.417507,430.324219 231.926776,430.324219 C233.392459,425.478726 232.546382,422.8628 229.388544,422.476442 C226.230706,422.090083 223.607437,421.741233 221.518736,421.42989 L195.303714,409.743102 C194.799285,409.518225 194.208065,409.744847 193.983188,410.249276 C193.979341,410.257905 193.975617,410.266589 193.972016,410.275324 L192.286935,414.362914 C189.363603,415.726871 186.988092,416.408849 185.160403,416.408849 C183.675448,416.408849 181.624714,415.809124 179.008199,414.609674 L179.008205,414.609662 C178.004104,414.149367 176.816977,414.590208 176.356682,415.594309 C176.336842,415.637587 176.318554,415.68156 176.301853,415.726143 Z" id="shoe" fill="#E4E4E4"></path>
            <path d="M121.536175,126.583468 C119.728185,154.424747 120.791515,175.671664 124.726167,190.324219 L110.467376,190.324219 C112.425145,167.838121 115.879598,146.591208 121.536172,126.583479 Z" id="Shade" fill-opacity="0.1" fill="#000000"></path>
        </g>
        <path d="M656.769793,600.263882 C680.463199,599.572923 700.331204,599.238056 716.373809,599.259281 C695.347291,596.308866 659.564949,588.442449 609.026783,575.66003 C693.665312,573.871387 738.458626,575.718084 743.406724,581.20012 C750.668961,589.246009 737.269969,591.425069 731.674591,599.409651 C752.905762,599.834616 764.521058,601.154685 766.52048,603.369859 C766.636835,603.49877 766.682624,603.761006 766.66328,604.139243 C768.810354,604.750345 770.220378,605.428693 770.893352,606.174286 C778.315499,614.397341 764.156506,616.492354 758.803255,624.919832 C753.450004,633.347311 782.537396,625.561501 758.803255,625.561501 C758.279723,625.561501 757.728886,625.552405 757.150745,625.534212 C752.128488,633.705362 745.898715,640.997356 740.470652,640.999997 C727.029354,641.006538 671.87247,628.463159 575,603.369859 C597.868584,602.348397 618.692522,601.517262 637.471814,600.876456 C637.15293,600.7959 636.833467,600.715147 636.513412,600.634197 C643.54017,600.485702 650.292297,600.362264 656.769793,600.263882 Z" id="Combined-Shape" fill="url(#linearGradient-8)" opacity="0.475725446"></path>
        <path d="M461,765 C469.468185,766.858321 474.313969,768.855122 475.537351,770.990402 C478.27737,775.772804 471.178769,785 478.585759,785 C497.137272,785 507.422948,785 525.246219,785 C534.789849,785 534.85858,775.502573 521.323331,770.990402 C509.580732,767.075836 485.100049,768.061335 478.585759,768.061335 C469.237049,768.061335 463.375129,767.04089 461,765 Z" id="Path-9-Copy" fill="url(#linearGradient-9)"></path>
        <path d="M480.866825,717.145064 C485.531975,725.240159 464.531824,728.77014 493.967625,735.565431 C523.403426,742.360723 535.155169,740.858887 565.501029,740.858887 C581.74999,740.858887 581.867012,724.782745 558.821928,717.145064 C538.829006,710.518942 497.148252,712.187081 486.057037,712.187081 C462.181399,712.187081 477.742433,711.723534 480.866825,717.145064 Z" id="Path-9-Copy-8" fill="url(#linearGradient-10)"></path>
        <path d="M426.335474,739.614245 C444.944626,739.614245 448.203344,743 466.081991,743 C475.655272,743 478.125296,735.521088 464.547994,730.971663 C456.772169,728.366174 431.850845,726.006624 421.798866,726.000001 C416.623767,725.996591 418.905471,739.614245 426.335474,739.614245 Z" id="Path-9-Copy-4" fill="url(#linearGradient-11)"></path>
        <path d="M558.717103,764 C572.013288,764 579.385208,764 592.15945,764 C598.999532,764 599.048793,757.502268 589.347849,754.415233 C585.4734,753.182306 576.965718,751.969329 570.059871,754.415233 C561.964761,757.282349 555.852309,764 558.717103,764 Z" id="Path-9-Copy-2" fill="url(#linearGradient-12)"></path>
        <path d="M586.331423,735 C594.094491,735 600.442155,735 609.568399,735 C616.356258,735 606.778263,722.104333 606.778263,725.601403 C606.778263,726.864031 586.483528,724.465635 579.630406,726.864031 C575.204568,728.412948 580.888519,729.158472 583.694451,730.922343 C585.981546,732.360062 584.975186,735 586.331423,735 Z" id="Path-9-Copy-3" fill="url(#linearGradient-13)"></path>
        <path d="M500,656 L493.030826,687.854895 C492.629086,689.691178 491.002965,691 489.123249,691 L485.984214,691 C483.775075,691 481.984214,689.209139 481.984214,687 C481.984214,686.698212 482.018367,686.397394 482.086021,686.103287 L489.010771,656 L500,656 Z" id="Path-6" fill="#E4D4D0"></path>
        <path d="M499,693.288288 L499,711.445554 C498.192331,717.148518 494.978375,720 489.358132,720 C483.73789,720 485.172266,708 493.661262,684 L499,693.288288 Z" id="Path-9" fill="#FFFFFF"></path>
        <g id="Group" transform="translate(433.000000, 612.000000)">
            <mask id="mask-15" fill="white">
                <use xlink:href="#path-14"></use>
            </mask>
            <g id="Mask">
                <use fill="black" fill-opacity="1" filter="url(#filter-16)" xlink:href="#path-14"></use>
                <use fill="#FFFFFF" fill-rule="evenodd" xlink:href="#path-14"></use>
            </g>
            <circle id="Oval-Copy" fill="#4E4E4E" mask="url(#mask-15)" cx="-0.5" cy="16.7011719" r="10.5"></circle>
            <circle id="Oval" fill="#D1A2A2" mask="url(#mask-15)" cx="38.5" cy="23.1127818" r="10.5"></circle>
            <ellipse id="Oval-Copy-2" fill="#D1A2A2" mask="url(#mask-15)" transform="translate(92.205078, 46.393555) rotate(21.000000) translate(-92.205078, -46.393555) " cx="92.2050781" cy="46.3935547" rx="10.5" ry="6"></ellipse>
            <circle id="Oval" fill="#000000" mask="url(#mask-15)" cx="35" cy="21.6127818" r="2"></circle>
        </g>
        <rect id="Rectangle" fill="#83432E" transform="translate(487.036058, 659.046534) rotate(58.000000) translate(-487.036058, -659.046534) " x="483.536058" y="634.546534" width="7" height="49" rx="2"></rect>
        <path d="M464.944736,757 C481.80193,764.118319 496.107821,767.677478 507.86241,767.677478 C525.494293,767.677478 492.924422,775.296747 482.46783,782.350628 C472.011238,789.404509 478.834208,771.673149 464.944736,769.675314 C455.685088,768.343424 455.685088,764.118319 464.944736,757 Z" id="Path-3" fill="#FFFFFF"></path>
        <path d="M573.131546,723 C580.732855,726.242601 587.183721,727.863901 592.484145,727.863901 C600.434779,727.863901 593.067722,732.086036 588.352596,735.299284 C583.637471,738.512531 579.394639,729.684046 573.131546,728.773973 C568.956151,728.167259 568.956151,726.242601 573.131546,723 Z" id="Path-3-Copy-3" fill="#99A169"></path>
        <path d="M441.927105,702 C446.604834,703.995447 450.574598,704.99317 453.836397,704.99317 C458.729095,704.99317 454.195521,707.591407 451.293905,709.56879 C448.39229,711.546173 445.781316,706.113259 441.927105,705.553214 C439.357632,705.179852 439.357632,703.995447 441.927105,702 Z" id="Path-3-Copy-4" fill="#FFFFFF" transform="translate(448.000000, 706.000000) rotate(-194.000000) translate(-448.000000, -706.000000) "></path>
        <path d="M567.121081,703.144233 C571.293723,702.87632 575.018924,703.150982 578.296684,703.968219 C580.459113,704.507373 579.442476,705.721316 580.091313,706.863388 C580.917715,708.318005 582.938994,709.776564 581.313562,710.884257 C578.411947,712.86164 568.411405,706.63949 564.557194,706.079446 C561.98772,705.706083 562.842349,704.727679 567.121081,703.144233 Z" id="Path-3-Copy-4" fill="#DEB552" transform="translate(572.519515, 707.157970) scale(-1, 1) rotate(-196.000000) translate(-572.519515, -707.157970) "></path>
        <path d="M548.565575,749.356506 C558.066903,753.574769 566.130223,755.683901 572.755537,755.683901 C582.693507,755.683901 564.335944,760.199023 558.442228,764.3791 C552.548513,768.559178 556.394187,758.051706 548.565575,756.867803 C543.346501,756.078535 543.346501,753.574769 548.565575,749.356506 Z" id="Path-3-Copy" fill="#3A2B28" transform="translate(560.151270, 757.356506) rotate(-15.000000) translate(-560.151270, -757.356506) "></path>
        <path d="M423.634136,724.606964 C433.135463,728.825227 441.198784,730.934358 447.824098,730.934358 C457.762068,730.934358 439.404504,735.44948 433.510789,739.629558 C427.617074,743.809636 421.925884,738.266152 414.097272,737.08225 C408.878198,736.292981 412.057153,732.134553 423.634136,724.606964 Z" id="Path-3-Copy-2" fill="#83432E" transform="translate(431.192251, 732.886642) rotate(4.000000) translate(-431.192251, -732.886642) "></path>
        <polyline id="Path-7" stroke="#D3BDAB" stroke-width="6" stroke-linecap="round" points="576 603 614.987983 370 646 603"></polyline>
        <path d="M585.5,326.152321 L644.210938,326.152321" id="Line" stroke="#D3BDAB" stroke-width="8" stroke-linecap="square"></path>
        <path d="M550.5,477.152321 L671.249823,477.152321" id="Line-Copy-2" stroke="#D3BDAB" stroke-width="8" stroke-linecap="round"></path>
        <path d="M615.105469,348.5 L615.105469,575.701172" id="Line-2" stroke="#D3BDAB" stroke-width="6"></path>
        <g id="Group-2" transform="translate(555.000000, 330.000000)">
            <mask id="mask-18" fill="white">
                <use xlink:href="#path-17"></use>
            </mask>
            <use id="Mask" fill="#FFFFFF" xlink:href="#path-17"></use>
            <g mask="url(#mask-18)">
                <g transform="translate(-5.000000, -15.000000)">
                    <rect id="Rectangle" stroke="#979797" stroke-width="1" fill="#99A169" x="6.5" y="8.5" width="108" height="78"></rect>
                    <rect id="Rectangle-Copy-4" stroke="#979797" stroke-width="1" fill="#83432E" x="6.5" y="77.5" width="108" height="47"></rect>
                    <g id="Path-12" stroke="none" stroke-width="1" fill="none" transform="translate(6.000000, 121.000000)">
                        <mask id="mask-20" fill="white">
                            <use xlink:href="#path-19"></use>
                        </mask>
                        <use id="Mask" fill="#563F33" xlink:href="#path-19"></use>
                        <path d="M34.6545607,25.1914894 C8.61777283,26.7839215 -4.40062112,28.0898309 -4.40062112,29.1092177 C-4.40062112,30.1286045 -4.40062112,39.8891844 -4.40062112,58.3909574 L96.0492127,53.7659574 L96.0492127,34.212766 L77.8031663,20.1781915 L60.3812688,20.1781915 L34.6545607,25.1914894 Z" fill="#2C0F1F" mask="url(#mask-20)"></path>
                    </g>
                    <path d="M38,77.8676569 C40.023089,68.9334723 41.0346335,57.6324168 41.0346335,43.9644905 C41.0346335,23.4626011 54.0800352,22 57.888222,22 C61.6964088,22 78.9752871,22.1472195 78.9752871,62.4324348 C78.9752871,69.7732685 80.3514395,74.9614582 83.1037442,77.997004 C87.9818382,83.3771049 72.9472567,83.3339892 38,77.8676569 Z" id="Path-8" stroke="none" fill="#412224"></path>
                    <g id="Oval" stroke="none" stroke-width="1" fill="none" transform="translate(34.000000, 49.000000)">
                        <mask id="mask-22" fill="white">
                            <use xlink:href="#path-21"></use>
                        </mask>
                        <use id="Mask" fill="#DEB552" xlink:href="#path-21"></use>
                        <ellipse fill="#967134" mask="url(#mask-22)" cx="22.2931553" cy="0.846774194" rx="13.2359551" ry="17.4435484"></ellipse>
                    </g>
                    <ellipse id="Oval" stroke="none" fill="#DEB552" cx="54.5" cy="46.5" rx="12.5" ry="17.5"></ellipse>
                    <path d="M35.1908111,81.6857506 C29.7620491,91.0879569 25.3105172,98.6064066 21.8362154,104.2411 C16.6247628,112.693139 9.05338219,122.731884 15.4447988,128.273749 C21.8362154,133.815614 31.3660316,129.83791 33.8803289,129.83791 C36.3946262,129.83791 30.4172902,128.260548 30.4172902,123.611133 C30.4172902,120.511524 31.5716364,118.696053 33.8803289,118.16472 L31.5555149,117.252981 L35.1908111,109.546252 L37.0869689,118.16472 C35.5167754,137.557488 36.0827959,147.548051 38.7850306,148.136407 C42.8383826,149.018941 72.5388922,150.107688 74.0176567,148.136407 C75.4964213,146.165126 74.803416,143.801314 76.2629673,143.801314 C77.7225185,143.801314 85.7994088,144.164008 84.8473547,150.852305 C84.212652,155.31117 84.5876433,158.027068 85.9723288,159 L101.297286,159 C102.916506,133.769199 101.737426,114.730726 97.7600436,101.884581 C91.7939705,82.6153623 86.3161813,79.0023424 82.9770355,77.4149741 C79.6378897,75.8276059 69.5435988,78.9555966 62.6592607,84.0469112 C55.7749226,89.1382258 48.2307056,90.7020553 41.0555172,86.6587088 C36.2720583,83.9631445 34.3171563,82.3054917 35.1908111,81.6857506 Z" id="Path-10" stroke="none" fill="#3A2B28"></path>
                    <path d="M47.2843679,132.105334 C48.6192708,131.560618 50.261606,132.538213 52.2113733,135.038119 C55.1360243,138.787978 65.5604028,144 69.6720195,144 C73.7836361,144 75.7241574,140.921032 74.7538967,137.979575 C73.7836361,135.038119 67.7823516,132.682192 68.7271855,131.174354 C69.6720195,129.666516 67.6228567,127.094621 62.5034173,125.825307 C57.3839778,124.555994 51.620202,124 48.9388385,124 C47.1512628,124 46.5997726,126.701778 47.2843679,132.105334 Z" id="Path-11-Copy" stroke="none" fill="#C4953E" transform="translate(61.000000, 134.000000) scale(-1, 1) translate(-61.000000, -134.000000) "></path>
                    <path d="M30.3249919,127.321135 C31.8505952,126.694711 33.7275497,127.818945 35.9558552,130.693837 C39.2983135,135.006175 51.2118889,141 55.9108794,141 C60.6098698,141 62.8276084,137.459187 61.7187391,134.076512 C60.6098698,130.693837 53.751259,127.984521 54.8310692,126.250507 C55.9108794,124.516494 53.5689791,121.558814 47.7181911,120.099103 C41.8674032,118.639393 35.2802309,118 32.2158154,118 C30.1728718,118 29.5425973,121.107045 30.3249919,127.321135 Z" id="Path-11" stroke="none" fill="#E4BB58"></path>
                    <rect id="Rectangle" stroke="none" fill="url(#linearGradient-23)" opacity="0.567243304" x="0" y="0" width="120" height="158"></rect>
                </g>
            </g>
        </g>
        <path d="M323.5,78 L323.5,78 C355.256373,78 381,103.743627 381,135.5 L381,263 L266,263 L266,135.5 C266,103.743627 291.743627,78 323.5,78 Z" id="Rectangle" fill="#FFFFFF"></path>
        <path d="M519.5,78 L519.5,78 C551.256373,78 577,103.743627 577,135.5 L577,263 L462,263 L462,135.5 C462,103.743627 487.743627,78 519.5,78 Z" id="Rectangle-Copy-3" fill="#FFFFFF"></path>
        <g id="Group-3" transform="translate(266.000000, 78.000000)" opacity="0.584240141">
            <polygon id="Path-13-Copy" fill="url(#linearGradient-24)" points="5.68434189e-14 184.5 297 365 455.776493 229 80 4"></polygon>
            <polygon id="Path-13-Copy-2" fill="url(#linearGradient-25)" points="198 184.5 626.276493 434 653.776493 229 267.305408 -8.52651283e-14"></polygon>
        </g>
    </g>
</svg>